<?xml version="1.0" encoding="utf-8"?>

<!DOCTYPE svg PUBLIC "-//W3C//DTD SVG 1.1//EN" "http://www.w3.org/Graphics/SVG/1.1/DTD/svg11.dtd">
<!-- Uploaded to: SVG Repo, www.svgrepo.com, Generator: SVG Repo Mixer Tools -->
<svg height="800px" width="800px" version="1.1" id="_x32_" xmlns="http://www.w3.org/2000/svg" xmlns:xlink="http://www.w3.org/1999/xlink" 
	 viewBox="0 0 512 512"  xml:space="preserve">
<style type="text/css">
	.st0{fill:#000000;}
</style>
<g>
	<path class="st0" d="M458.095,216.874h-33.519l-15.774-47.32h-41.405h-65.62h-74.37l11.83-41.406h-13.802l-27.604,41.406h-41.406
		l-62.008,94.641h374.028L458.095,216.874z M193.888,232.247h-23.66v-23.66h23.66V232.247z M251.067,232.247h-23.66v-23.66h23.66
		V232.247z M308.246,232.247h-23.66v-23.66h23.66V232.247z M359.51,232.247h-23.66v-23.66h23.66V232.247z"/>
	<polygon class="st0" points="367.397,99.358 314.161,99.358 309.871,119.861 367.397,119.861 	"/>
	<polygon class="st0" points="367.397,131.691 307.391,131.691 301.777,158.509 367.397,158.509 	"/>
	<path class="st0" d="M77.866,360.608l3.074-1.849c3.974-2.334,9.273-5.252,15.935-7.672c9.335-3.419,19.778-5.167,30.977-5.167
		c12.785,0,24.284,2.164,34.566,6.447c6.847,2.842,12.124,6.046,15.974,8.394l2.511,1.51c1.994,1.171,3.196,1.779,4.228,2.157
		c0.801,0.284,2.465,0.886,6.917,0.893c4.682-0.015,6.323-0.686,7.409-1.124c1.417-0.578,3.62-1.91,6.408-3.589l3.073-1.849
		c3.974-2.334,9.274-5.252,15.935-7.672c9.335-3.419,19.778-5.167,30.977-5.167c12.777,0,24.269,2.164,34.559,6.439
		c6.832,2.842,12.092,6.038,15.935,8.38l2.541,1.524c2.018,1.186,3.212,1.795,4.244,2.172c0.778,0.278,2.45,0.879,6.909,0.886
		c4.675-0.015,6.316-0.686,7.402-1.124c1.417-0.578,3.62-1.91,6.408-3.589l3.073-1.849c3.974-2.334,9.273-5.252,15.935-7.672
		c9.334-3.419,19.778-5.167,30.978-5.167c12.785,0,24.276,2.164,34.566,6.439c6.839,2.842,12.107,6.046,15.95,8.38l2.534,1.524
		c2.01,1.179,3.204,1.787,4.252,2.172c0.778,0.278,2.449,0.879,6.916,0.886c4.675-0.015,6.316-0.686,7.402-1.124
		c1.425-0.578,3.612-1.903,6.385-3.574l3.096-1.864c2.156-1.264,4.744-2.704,7.686-4.144l17.021-68.347h-21.196H94.418H22.351
		l51.44,76.726C74.963,362.34,76.287,361.555,77.866,360.608z"/>
	<path class="st0" d="M488.957,373.323c-4.714,1.71-8.619,3.828-11.938,5.776c-5.007,2.973-8.664,5.391-12.693,7.032
		c-4.036,1.632-8.641,2.818-16.328,2.849c-6.824-0.015-11.245-0.986-14.965-2.318c-2.788-1.017-5.261-2.311-8.033-3.944
		c-4.136-2.403-8.988-5.73-15.681-8.51c-6.693-2.781-15.019-4.66-25.34-4.629c-9.173-0.016-16.759,1.44-23.044,3.743
		c-4.706,1.71-8.611,3.828-11.93,5.776c-5.006,2.973-8.672,5.391-12.692,7.032c-4.036,1.632-8.649,2.818-16.328,2.849
		c-6.824-0.015-11.237-0.986-14.957-2.318c-2.788-1.017-5.252-2.311-8.026-3.944c-4.136-2.403-8.98-5.73-15.673-8.51
		c-6.693-2.781-15.011-4.66-25.332-4.629c-9.173-0.016-16.759,1.44-23.044,3.743c-4.706,1.71-8.611,3.828-11.93,5.776
		c-5.007,2.973-8.672,5.391-12.693,7.032c-4.036,1.632-8.648,2.818-16.336,2.849c-6.824-0.015-11.237-0.986-14.95-2.318
		c-2.796-1.017-5.26-2.311-8.04-3.944c-4.128-2.403-8.973-5.73-15.674-8.51c-6.686-2.781-15.011-4.66-25.331-4.629
		c-9.173-0.016-16.76,1.44-23.044,3.743c-4.706,1.71-8.611,3.828-11.93,5.776c-5.006,2.973-8.672,5.391-12.693,7.032
		c-4.036,1.632-8.649,2.818-16.328,2.849c-6.824-0.015-11.237-0.986-14.957-2.318c-2.796-1.017-5.26-2.311-8.033-3.944
		c-4.136-2.403-8.981-5.73-15.681-8.51c-6.693-2.781-15.019-4.66-25.332-4.629v23.66c6.824,0.015,11.237,0.986,14.957,2.318
		c2.788,1.017,5.26,2.311,8.033,3.944c4.136,2.395,8.981,5.73,15.681,8.51c6.686,2.781,15.011,4.66,25.332,4.629
		c9.181,0.016,16.759-1.44,23.044-3.743c4.706-1.718,8.611-3.827,11.93-5.776c5.007-2.974,8.672-5.392,12.693-7.032
		c4.036-1.632,8.649-2.819,16.328-2.85c6.824,0.015,11.237,0.986,14.957,2.318c2.788,1.017,5.26,2.311,8.032,3.944
		c4.136,2.395,8.981,5.73,15.674,8.51c6.694,2.781,15.019,4.66,25.332,4.629c9.181,0.016,16.767-1.44,23.052-3.743
		c4.706-1.71,8.611-3.827,11.93-5.776c5.006-2.974,8.672-5.392,12.693-7.032c4.036-1.632,8.649-2.819,16.328-2.85
		c6.824,0.015,11.237,0.986,14.95,2.318c2.788,1.017,5.26,2.311,8.032,3.944c4.137,2.395,8.981,5.73,15.674,8.51
		c6.686,2.781,15.012,4.66,25.332,4.629c9.172,0.016,16.76-1.44,23.044-3.743c4.706-1.718,8.61-3.827,11.93-5.776
		c5.006-2.974,8.665-5.392,12.693-7.032c4.036-1.632,8.65-2.819,16.328-2.85c6.824,0.015,11.245,0.986,14.965,2.318
		c2.788,1.017,5.26,2.311,8.033,3.944c4.136,2.403,8.981,5.738,15.681,8.51c6.693,2.781,15.019,4.66,25.339,4.629
		c9.181,0.016,16.76-1.44,23.044-3.743c4.706-1.718,8.619-3.827,11.93-5.776c5.014-2.974,8.672-5.392,12.7-7.032
		c4.029-1.632,8.642-2.819,16.328-2.85v-23.66C502.82,369.564,495.241,371.02,488.957,373.323z"/>
</g>
</svg>