<?xml version="1.0" ?>
<!DOCTYPE svg  PUBLIC '-//W3C//DTD SVG 1.1//EN'  'http://www.w3.org/Graphics/SVG/1.1/DTD/svg11.dtd'>
<!-- Uploaded to: SVG Repo, www.svgrepo.com, Generator: SVG Repo Mixer Tools -->
<svg fill="#000000" width="800px" height="800px" viewBox="0 0 32 32" style="fill-rule:evenodd;clip-rule:evenodd;stroke-linejoin:round;stroke-miterlimit:2;" version="1.1" xml:space="preserve" xmlns="http://www.w3.org/2000/svg" xmlns:serif="http://www.serif.com/" xmlns:xlink="http://www.w3.org/1999/xlink">
<g transform="matrix(1,0,0,1,-48,-288)">
<g transform="matrix(1.14286,0,0,0.857143,48.5714,43.7143)">
<path d="M17,294.333C17,293.045 16.216,292 15.25,292C12.56,292 7.44,292 4.75,292C3.784,292 3,293.045 3,294.333C3,298.316 3,306 3,306L17,306L17,294.333Z" style="fill:rgb(144,224,239);"/>
</g>
<g transform="matrix(1,0,0,1,46,-1)">
<path d="M28.586,299.586C28.211,299.211 27.702,299 27.172,299C25.525,299 22,299 22,299L22,307L31,307L31,302.828C31,302.298 30.789,301.789 30.414,301.414C29.886,300.886 29.114,300.114 28.586,299.586Z" style="fill:rgb(144,224,239);"/>
</g>
<g transform="matrix(1,0,0,1.5,48,-157.5)">
<path d="M29,309L4,309L4,311.667C4,312.403 4.895,313 6,313C10.683,313 22.317,313 27,313C28.105,313 29,312.403 29,311.667C29,310.503 29,309 29,309Z" style="fill:rgb(144,224,239);"/>
</g>
<g transform="matrix(1,0,0,1,48,-2)">
<circle cx="10" cy="314" r="3" style="fill:rgb(144,224,239);"/>
</g>
<g transform="matrix(1,0,0,1,61,-2)">
<circle cx="10" cy="314" r="3" style="fill:rgb(144,224,239);"/>
</g>
<circle cx="55" cy="295" r="5" style="fill:rgb(144,224,239);"/>
<path d="M51,299.471C49.773,298.372 49,296.775 49,295C49,291.689 51.689,289 55,289C57.61,289 59.834,290.671 60.658,293L66,293C67.657,293 69,294.343 69,296L69,297L73.172,297C73.967,297 74.73,297.316 75.293,297.879L77.121,299.707C77.684,300.27 78,301.033 78,301.828L78,310C78,311.657 76.657,313 75,313L74.874,313C74.429,314.724 72.862,316 71,316C69.138,316 67.571,314.724 67.126,313L61.874,313C61.429,314.724 59.862,316 58,316C56.138,316 54.571,314.724 54.126,313L54,313C52.343,313 51,311.657 51,310L51,299.471ZM58,310C59.104,310 60,310.896 60,312C60,313.104 59.104,314 58,314C56.896,314 56,313.104 56,312C56,310.896 56.896,310 58,310ZM71,310C72.104,310 73,310.896 73,312C73,313.104 72.104,314 71,314C69.896,314 69,313.104 69,312C69,310.896 69.896,310 71,310ZM53,307L53,310C53,310.552 53.448,311 54,311L54.126,311C54.571,309.276 56.138,308 58,308C59.862,308 61.429,309.276 61.874,311L67.126,311C67.571,309.276 69.138,308 71,308C72.862,308 74.429,309.276 74.874,311L75,311C75.552,311 76,310.552 76,310L76,307L53,307ZM61,295C61,298.311 58.311,301 55,301C54.299,301 53.626,300.88 53,300.658L53,305L67,305L67,296C67,295.448 66.552,295 66,295L61,295ZM76,305L69,305L69,299C69,299 73.172,299 73.172,299C73.437,299 73.691,299.105 73.879,299.293L75.707,301.121C75.895,301.309 76,301.563 76,301.828L76,305ZM55,291C57.208,291 59,292.792 59,295C59,297.208 57.208,299 55,299C52.792,299 51,297.208 51,295C51,292.792 52.792,291 55,291ZM54,293L54,295C54,295.552 54.448,296 55,296L57,296C57.552,296 58,295.552 58,295C58,294.448 57.552,294 57,294L56,294C56,294 56,293 56,293C56,292.448 55.552,292 55,292C54.448,292 54,292.448 54,293Z" style="fill:rgb(25,144,167);"/>
</g>
</svg>